REM DIRINDEX 1\2,1\3,1\4,1\5
REM DIRNAME folder01,folder02,folder03,folder04,folder05
TITLE ""
FILE "1Q_t_0632-0641.mp3" MP3
  TRACK 01 AUDIO
    TITLE "3:cjc004_2798"
    INDEX 01 00:00:00
  TRACK 02 AUDIO
    TITLE "0:"
    INDEX 01 00:01:11
  TRACK 03 AUDIO
    TITLE "4:cjc004_2799"
    INDEX 01 00:01:42
  TRACK 04 AUDIO
    TITLE "0:"
    INDEX 01 00:02:57
  TRACK 05 AUDIO
    TITLE "5:cjc004_2800"
    INDEX 01 00:03:14
  TRACK 06 AUDIO
    TITLE "0:"
    INDEX 01 00:08:09
  TRACK 07 AUDIO
    TITLE "3:cjc004_2801"
    INDEX 01 00:08:68
  TRACK 08 AUDIO
    TITLE "0:"
    INDEX 01 00:10:21
  TRACK 09 AUDIO
    TITLE "4:cjc004_2802"
    INDEX 01 00:10:53
  TRACK 10 AUDIO
    TITLE "0:"
    INDEX 01 00:11:68
  TRACK 11 AUDIO
    TITLE "5:cjc004_2803"
    INDEX 01 00:12:20
  TRACK 12 AUDIO
    TITLE "0:"
    INDEX 01 00:18:07
  TRACK 13 AUDIO
    TITLE "3:cjc004_2804"
    INDEX 01 00:18:62
  TRACK 14 AUDIO
    TITLE "0:"
    INDEX 01 00:20:00
  TRACK 15 AUDIO
    TITLE "4:cjc004_2805"
    INDEX 01 00:20:26
  TRACK 16 AUDIO
    TITLE "0:"
    INDEX 01 00:21:57
  TRACK 17 AUDIO
    TITLE "5:cjc004_2806"
    INDEX 01 00:22:01
  TRACK 18 AUDIO
    TITLE "0:"
    INDEX 01 00:25:48
  TRACK 19 AUDIO
    TITLE "3:cjc004_2807"
    INDEX 01 00:26:30
  TRACK 20 AUDIO
    TITLE "0:"
    INDEX 01 00:27:45
  TRACK 21 AUDIO
    TITLE "4:cjc004_2808"
    INDEX 01 00:27:69
  TRACK 22 AUDIO
    TITLE "0:"
    INDEX 01 00:29:15
  TRACK 23 AUDIO
    TITLE "5:cjc004_2809"
    INDEX 01 00:29:42
  TRACK 24 AUDIO
    TITLE "0:"
    INDEX 01 00:34:12
  TRACK 25 AUDIO
    TITLE "3:cjc004_2810"
    INDEX 01 00:34:65
  TRACK 26 AUDIO
    TITLE "0:"
    INDEX 01 00:36:03
  TRACK 27 AUDIO
    TITLE "4:cjc004_2811"
    INDEX 01 00:36:31
  TRACK 28 AUDIO
    TITLE "0:"
    INDEX 01 00:37:57
  TRACK 29 AUDIO
    TITLE "5:cjc004_2812"
    INDEX 01 00:38:08
  TRACK 30 AUDIO
    TITLE "0:"
    INDEX 01 00:43:09
  TRACK 31 AUDIO
    TITLE "3:cjc004_2813"
    INDEX 01 00:43:62
  TRACK 32 AUDIO
    TITLE "0:"
    INDEX 01 00:44:61
  TRACK 33 AUDIO
    TITLE "4:cjc004_2814"
    INDEX 01 00:45:14
  TRACK 34 AUDIO
    TITLE "0:"
    INDEX 01 00:46:41
  TRACK 35 AUDIO
    TITLE "5:cjc004_2815"
    INDEX 01 00:46:70
  TRACK 36 AUDIO
    TITLE "0:"
    INDEX 01 00:50:60
  TRACK 37 AUDIO
    TITLE "3:cjc004_2816"
    INDEX 01 00:51:38
  TRACK 38 AUDIO
    TITLE "0:"
    INDEX 01 00:52:55
  TRACK 39 AUDIO
    TITLE "4:cjc004_2817"
    INDEX 01 00:53:09
  TRACK 40 AUDIO
    TITLE "0:"
    INDEX 01 00:55:65
  TRACK 41 AUDIO
    TITLE "5:cjc004_2818"
    INDEX 01 00:56:20
  TRACK 42 AUDIO
    TITLE "0:"
    INDEX 01 01:00:31
  TRACK 43 AUDIO
    TITLE "3:cjc004_2819"
    INDEX 01 01:01:03
  TRACK 44 AUDIO
    TITLE "0:"
    INDEX 01 01:02:30
  TRACK 45 AUDIO
    TITLE "4:cjc004_2820"
    INDEX 01 01:02:57
  TRACK 46 AUDIO
    TITLE "0:"
    INDEX 01 01:04:09
  TRACK 47 AUDIO
    TITLE "5:cjc004_2821"
    INDEX 01 01:04:37
  TRACK 48 AUDIO
    TITLE "0:"
    INDEX 01 01:08:35
  TRACK 49 AUDIO
    TITLE "3:cjc004_2822"
    INDEX 01 01:09:16
  TRACK 50 AUDIO
    TITLE "0:"
    INDEX 01 01:10:24
  TRACK 51 AUDIO
    TITLE "4:cjc004_2823"
    INDEX 01 01:10:55
  TRACK 52 AUDIO
    TITLE "0:"
    INDEX 01 01:11:56
  TRACK 53 AUDIO
    TITLE "5:cjc004_2824"
    INDEX 01 01:12:03
  TRACK 54 AUDIO
    TITLE "0:"
    INDEX 01 01:15:39
  TRACK 55 AUDIO
    TITLE "3:cjc004_2825"
    INDEX 01 01:16:24
  TRACK 56 AUDIO
    TITLE "0:"
    INDEX 01 01:17:24
  TRACK 57 AUDIO
    TITLE "4:cjc004_2826"
    INDEX 01 01:17:51
  TRACK 58 AUDIO
    TITLE "0:"
    INDEX 01 01:18:72
  TRACK 59 AUDIO
    TITLE "5:cjc004_2827"
    INDEX 01 01:19:21
  TRACK 60 AUDIO
    TITLE "0:"
    INDEX 01 01:24:34
